<svg id="test" xmlns="http://www.w3.org/2000/svg" width="100" height="100" viewBox="0 0 100 100">
  <defs>
    <style>
      .cls-1 {
        fill: #373c81;
      }
    </style>
  </defs>
  <title>Untitled-1</title>
  <g>
    <path class="cls-1" d="M631.41,475.29a28.61,28.61,0,0,0-15.53,10.09h8.46A33.71,33.71,0,0,1,631.41,475.29Z" transform="translate(-588.33 -452.98)"/>
    <path class="cls-1" d="M648.11,485.38a26.76,26.76,0,0,0-9.78-10.66,26.9,26.9,0,0,0-9.78,10.66Z" transform="translate(-588.33 -452.98)"/>
    <path class="cls-1" d="M622.82,489.17h-9.46a28.3,28.3,0,0,0-3.5,11.91h10.76A42.59,42.59,0,0,1,622.82,489.17Z" transform="translate(-588.33 -452.98)"/>
    <path class="cls-1" d="M620.62,504.87H609.86a28.3,28.3,0,0,0,3.5,11.91h9.46A42.52,42.52,0,0,1,620.62,504.87Z" transform="translate(-588.33 -452.98)"/>
    <path class="cls-1" d="M660.79,485.38a28.6,28.6,0,0,0-15.54-10.09,33.74,33.74,0,0,1,7.08,10.09Z" transform="translate(-588.33 -452.98)"/>
    <path class="cls-1" d="M626.84,516.78h23a38.7,38.7,0,0,0,2.43-11.91H624.41A38.41,38.41,0,0,0,626.84,516.78Z" transform="translate(-588.33 -452.98)"/>
    <path class="cls-1" d="M649.83,489.17h-23a38.47,38.47,0,0,0-2.43,11.91h27.85A38.77,38.77,0,0,0,649.83,489.17Z" transform="translate(-588.33 -452.98)"/>
    <path class="cls-1" d="M656.05,501.08h10.76a28.31,28.31,0,0,0-3.51-11.91h-9.46A42.6,42.6,0,0,1,656.05,501.08Z" transform="translate(-588.33 -452.98)"/>
    <path class="cls-1" d="M653.84,516.78h9.46a28.31,28.31,0,0,0,3.51-11.91H656.05A42.53,42.53,0,0,1,653.84,516.78Z" transform="translate(-588.33 -452.98)"/>
    <path class="cls-1" d="M669.05,453H607.61a19.28,19.28,0,0,0-19.28,19.28V533.7A19.28,19.28,0,0,0,607.61,553h61.44a19.28,19.28,0,0,0,19.28-19.28V472.26A19.28,19.28,0,0,0,669.05,453Zm-7.86,72.85a32.33,32.33,0,1,1-22.86-55.18h0a32.32,32.32,0,0,1,22.86,55.18Z" transform="translate(-588.33 -452.98)"/>
    <path class="cls-1" d="M645.25,530.66a28.6,28.6,0,0,0,15.54-10.09h-8.46A33.61,33.61,0,0,1,645.25,530.66Z" transform="translate(-588.33 -452.98)"/>
    <path class="cls-1" d="M615.88,520.57a28.61,28.61,0,0,0,15.53,10.09,33.58,33.58,0,0,1-7.07-10.09Z" transform="translate(-588.33 -452.98)"/>
    <path class="cls-1" d="M628.55,520.57a26.83,26.83,0,0,0,9.78,10.66,26.69,26.69,0,0,0,9.78-10.66Z" transform="translate(-588.33 -452.98)"/>
  </g>
</svg>
