<svg id="test" xmlns="http://www.w3.org/2000/svg" width="100" height="100" viewBox="0 0 100 100">
  <defs>
    <style>
      .cls-1 {
        fill: #373c81;
      }
    </style>
  </defs>
  <title>Untitled-1</title>
  <g>
    <path class="cls-1" d="M648.64,484.44a28.29,28.29,0,0,0-10.31-11.23A28.27,28.27,0,0,0,628,484.44Z" transform="translate(-588.33 -452.98)"/>
    <path class="cls-1" d="M619.67,505H608.34A29.89,29.89,0,0,0,612,517.52h10A44.8,44.8,0,0,1,619.67,505Z" transform="translate(-588.33 -452.98)"/>
    <path class="cls-1" d="M622,488.43H612A29.89,29.89,0,0,0,608.34,501h11.33A44.8,44.8,0,0,1,622,488.43Z" transform="translate(-588.33 -452.98)"/>
    <path class="cls-1" d="M631,473.81a30.13,30.13,0,0,0-16.36,10.63h8.91A35.46,35.46,0,0,1,631,473.81Z" transform="translate(-588.33 -452.98)"/>
    <path class="cls-1" d="M662,484.44a30.15,30.15,0,0,0-16.37-10.63,35.28,35.28,0,0,1,7.45,10.63Z" transform="translate(-588.33 -452.98)"/>
    <path class="cls-1" d="M650.44,488.43H626.23A40.68,40.68,0,0,0,623.66,501H653A40.38,40.38,0,0,0,650.44,488.43Z" transform="translate(-588.33 -452.98)"/>
    <path class="cls-1" d="M626.23,517.52h24.21A40.32,40.32,0,0,0,653,505H623.66A40.62,40.62,0,0,0,626.23,517.52Z" transform="translate(-588.33 -452.98)"/>
    <path class="cls-1" d="M628,521.51a28.2,28.2,0,0,0,10.3,11.23,28.23,28.23,0,0,0,10.31-11.23Z" transform="translate(-588.33 -452.98)"/>
    <path class="cls-1" d="M657,501h11.33a29.89,29.89,0,0,0-3.69-12.55h-10A44.8,44.8,0,0,1,657,501Z" transform="translate(-588.33 -452.98)"/>
    <path class="cls-1" d="M614.68,521.51A30.07,30.07,0,0,0,631,532.14a35.46,35.46,0,0,1-7.45-10.63Z" transform="translate(-588.33 -452.98)"/>
    <path class="cls-1" d="M638.33,453a50,50,0,1,0,50,50A50,50,0,0,0,638.33,453Zm24.08,74.08a34.05,34.05,0,1,1-24.08-58.14h0a34.05,34.05,0,0,1,24.08,58.14Z" transform="translate(-588.33 -452.98)"/>
    <path class="cls-1" d="M645.62,532.14A30.1,30.1,0,0,0,662,521.51h-8.92A35.28,35.28,0,0,1,645.62,532.14Z" transform="translate(-588.33 -452.98)"/>
    <path class="cls-1" d="M654.67,517.52h10A29.89,29.89,0,0,0,668.33,505H657A44.8,44.8,0,0,1,654.67,517.52Z" transform="translate(-588.33 -452.98)"/>
  </g>
</svg>
