<svg id="test" xmlns="http://www.w3.org/2000/svg" width="100" height="100" viewBox="0 0 100 100">
  <defs>
    <style>
      .cls-1 {
        fill: #373c81;
      }
    </style>
  </defs>
  <title>Untitled-1</title>
  <path class="cls-1" d="M669.05,453H607.61a19.28,19.28,0,0,0-19.28,19.28V533.7A19.28,19.28,0,0,0,607.61,553h61.44a19.28,19.28,0,0,0,19.28-19.28V472.26A19.28,19.28,0,0,0,669.05,453Zm-3.16,77.73a2.26,2.26,0,0,1-2.27,2.27H613.05a2.26,2.26,0,0,1-2.27-2.27V505.43a2.27,2.27,0,0,1,4.54,0v23h46v-23a2.27,2.27,0,1,1,4.54,0ZM675.7,507a2.28,2.28,0,0,1-3.21,0l-34.16-34.16L604.18,507a2.3,2.3,0,0,1-1.61.66,2.27,2.27,0,0,1-1.6-3.87l35.76-35.76a2.28,2.28,0,0,1,3.21,0l35.76,35.76A2.26,2.26,0,0,1,675.7,507Z" transform="translate(-588.33 -452.98)"/>
</svg>
