<svg id="test" xmlns="http://www.w3.org/2000/svg" width="100" height="100" viewBox="0 0 100 100">
  <defs>
    <style>
      .cls-1 {
        fill: #373c81;
      }
    </style>
  </defs>
  <title>Untitled-1</title>
  <g>
    <path class="cls-1" d="M666,484.05H610.64a2.12,2.12,0,0,0-2.12,2.12v33.62a2.13,2.13,0,0,0,2.12,2.12H666a2.13,2.13,0,0,0,2.12-2.12V486.17A2.12,2.12,0,0,0,666,484.05ZM663.19,492l-23.45,20.67a2.11,2.11,0,0,1-2.8,0L613.47,492a2.12,2.12,0,1,1,2.81-3.18l22.05,19.44,22.06-19.44a2.12,2.12,0,1,1,2.8,3.18Z" transform="translate(-588.33 -452.98)"/>
    <path class="cls-1" d="M638.33,453a50,50,0,1,0,50,50A50,50,0,0,0,638.33,453Zm34.06,66.81a6.37,6.37,0,0,1-6.36,6.35H610.64a6.36,6.36,0,0,1-6.36-6.35V486.17a6.36,6.36,0,0,1,6.36-6.36H666a6.37,6.37,0,0,1,6.36,6.36Z" transform="translate(-588.33 -452.98)"/>
  </g>
</svg>
