<svg id="test" xmlns="http://www.w3.org/2000/svg" width="100" height="100" viewBox="0 0 100 100">
  <defs>
    <style>
      .cls-1 {
        fill: #373c81;
      }
    </style>
  </defs>
  <title>Untitled-1</title>
  <g>
    <circle class="cls-1" cx="638.33" cy="489.34" r="13.63" transform="translate(-658.47 -344.41) rotate(-9.22)"/>
    <path class="cls-1" d="M669.05,453H607.61a19.28,19.28,0,0,0-19.28,19.27V533.7A19.28,19.28,0,0,0,607.61,553h61.44a19.28,19.28,0,0,0,19.28-19.28V472.25A19.28,19.28,0,0,0,669.05,453Zm-1,82.31A2.52,2.52,0,0,1,665.5,533a27.27,27.27,0,0,0-54.34,0,2.52,2.52,0,0,1-5-.4,32.36,32.36,0,0,1,21.63-27.84,18.68,18.68,0,1,1,21.15,0,32.36,32.36,0,0,1,21.63,27.84A2.53,2.53,0,0,1,668,535.29Z" transform="translate(-588.33 -452.98)"/>
  </g>
</svg>
