<svg id="test" xmlns="http://www.w3.org/2000/svg" width="100" height="100" viewBox="0 0 100 100">
  <defs>
    <style>
      .cls-1 {
        fill: #373c81;
      }
    </style>
  </defs>
  <title>Phone</title>
  <path class="cls-1" d="M638.33,453a50,50,0,1,0,50,50A50,50,0,0,0,638.33,453Zm20.26,70.66a10.82,10.82,0,0,1-5.58,6.71,9.28,9.28,0,0,1-3.87.83,11.78,11.78,0,0,1-4.48-.94,60.71,60.71,0,0,1-19.92-13l0,0a61,61,0,0,1-13-19.93,10.32,10.32,0,0,1-.1-8.36,10.79,10.79,0,0,1,6.7-5.57,6,6,0,0,1,4.15,0c3,1.1,9.23,9.6,9.41,12.81s-2.12,4.63-3.22,5.37a2,2,0,1,1-2.27-3.31c1.3-.89,1.5-1.29,1.47-1.85-.2-1.72-5.22-8.57-6.79-9.26a2.13,2.13,0,0,0-1.47,0,6.91,6.91,0,0,0-4.33,3.45,6.43,6.43,0,0,0,.17,5.16,56.74,56.74,0,0,0,12.11,18.61h0a56.72,56.72,0,0,0,18.63,12.13,6.5,6.5,0,0,0,5.17.18,7,7,0,0,0,3.44-4.34,2.07,2.07,0,0,0,0-1.47c-.69-1.57-7.54-6.59-9.27-6.79-.55,0-.95.18-1.83,1.47a2,2,0,0,1-3.32-2.27c.75-1.09,2.31-3.37,5.37-3.21,3.22.17,11.72,6.42,12.82,9.41A6.07,6.07,0,0,1,658.59,523.64Zm-20.07-35.47a2,2,0,0,1,2-2,13.7,13.7,0,0,1,13.69,13.68,2,2,0,0,1-4,0,9.68,9.68,0,0,0-9.67-9.66A2,2,0,0,1,638.52,488.17Zm25.36,13.68a2,2,0,0,1-2-2,21.34,21.34,0,0,0-21.34-21.34,2,2,0,0,1,0-4,25.37,25.37,0,0,1,25.36,25.36A2,2,0,0,1,663.88,501.85Z" transform="translate(-588.33 -452.98)"/>
</svg>
