<svg id="test" xmlns="http://www.w3.org/2000/svg" width="100" height="100" viewBox="0 0 100 100">
  <defs>
    <style>
      .cls-1 {
        fill: #373c81;
      }
    </style>
  </defs>
  <title>Untitled-1</title>
  <g>
    <path class="cls-1" d="M638.33,485.85a9.45,9.45,0,1,0,9.45,9.44A9.44,9.44,0,0,0,638.33,485.85Z" transform="translate(-588.33 -452.98)"/>
    <path class="cls-1" d="M638.33,474.51a20.8,20.8,0,0,0-20.78,20.78c0,7.47,2.24,10.43,14.67,26.82,1.83,2.4,3.85,5.07,6.11,8.07,2.25-3,4.26-5.64,6.08-8,12.46-16.44,14.71-19.4,14.71-26.86A20.81,20.81,0,0,0,638.33,474.51Zm0,34a13.23,13.23,0,1,1,13.23-13.23A13.24,13.24,0,0,1,638.33,508.52Z" transform="translate(-588.33 -452.98)"/>
    <path class="cls-1" d="M669.05,453H607.61a19.28,19.28,0,0,0-19.28,19.27V533.7A19.28,19.28,0,0,0,607.61,553h61.44a19.28,19.28,0,0,0,19.28-19.28V472.25A19.28,19.28,0,0,0,669.05,453Zm-21.63,71.45c-2.21,2.92-4.72,6.22-7.58,10a1.86,1.86,0,0,1-1.51.76,1.89,1.89,0,0,1-1.51-.76c-2.88-3.83-5.39-7.15-7.61-10.07-12.78-16.85-15.44-20.35-15.44-29.1a24.56,24.56,0,1,1,49.12,0C662.89,504,660.23,507.54,647.42,524.43Z" transform="translate(-588.33 -452.98)"/>
  </g>
</svg>
