<svg id="test" xmlns="http://www.w3.org/2000/svg" width="100" height="100" viewBox="0 0 100 100">
  <defs>
    <style>
      .cls-1 {
        fill: #373c81;
      }
    </style>
  </defs>
  <title>Untitled-1</title>
  <g>
    <path class="cls-1" d="M638.33,473.28A21.7,21.7,0,0,0,616.65,495c0,7.8,2.34,10.88,15.31,28l6.37,8.43,6.34-8.38c13-17.15,15.35-20.24,15.35-28A21.71,21.71,0,0,0,638.33,473.28Zm0,35.48a13.8,13.8,0,1,1,13.8-13.8A13.81,13.81,0,0,1,638.33,508.76Z" transform="translate(-588.33 -452.98)"/>
    <path class="cls-1" d="M638.33,453a50,50,0,1,0,50,50A50,50,0,0,0,638.33,453Zm9.48,72.38c-2.3,3-4.92,6.49-7.9,10.47a2,2,0,0,1-3.15,0c-3-4-5.63-7.46-7.94-10.51-13.34-17.58-16.11-21.24-16.11-30.36A25.63,25.63,0,0,1,664,495C664,504.07,661.18,507.73,647.81,525.36Z" transform="translate(-588.33 -452.98)"/>
    <path class="cls-1" d="M638.33,485.1a9.86,9.86,0,1,0,9.86,9.86A9.87,9.87,0,0,0,638.33,485.1Z" transform="translate(-588.33 -452.98)"/>
  </g>
</svg>
